<?xml version="1.0" encoding="utf-8"?>
<!-- Generator: Adobe Illustrator 27.3.1, SVG Export Plug-In . SVG Version: 6.00 Build 0)  -->
<svg version="1.1" id="Layer_1" xmlns="http://www.w3.org/2000/svg" x="0px"
     y="0px"
     viewBox="0 0 512 512" style="enable-background:new 0 0 512 512;" xml:space="preserve">
<style type="text/css">
	.st0{fill:#FFFFFF;}
</style>
    <path class="st0" d="M224,0c-35.3,0-64,28.7-64,64v224c0,35.3,28.7,64,64,64h224c35.3,0,64-28.7,64-64V64c0-35.3-28.7-64-64-64H224z
	 M64,160c-35.3,0-64,28.7-64,64v224c0,35.3,28.7,64,64,64h224c35.3,0,64-28.7,64-64v-64h-64v64H64V224h64v-64H64z"/>
</svg>
