<?xml version="1.0" encoding="utf-8"?>
<!-- Generator: Adobe Illustrator 27.3.1, SVG Export Plug-In . SVG Version: 6.00 Build 0)  -->
<svg version="1.1" id="Layer_1" xmlns="http://www.w3.org/2000/svg" xmlns:xlink="http://www.w3.org/1999/xlink" x="0px" y="0px"
	 viewBox="0 0 24 24" style="enable-background:new 0 0 24 24;" xml:space="preserve">
<style type="text/css">
	.st0{fill:#FFFFFF;}
</style>
<path class="st0" d="M12,0C5.4,0,0,5.4,0,12s5.4,12,12,12s12-5.4,12-12S18.6,0,12,0z M21.6,9.1C21.5,9,21.4,9,21.4,9
	c-0.3-0.1-1.4,0.6-1.5,0.3c-0.1-0.2-0.3,0.1-0.6,0c-0.1-0.1-0.5-0.5-0.6-0.5c-0.3,0.1,0.5,1,0.7,1.1c0.2-0.2,0.9-0.5,1,0
	c0.3,0.8-0.7,1.7-1.3,2.2c-0.8,0.7-0.6-0.5-1.2-0.9c-0.3-0.2-0.3-0.7-0.6-0.8c-0.1-0.1-0.7-0.7-0.7-0.8l0,0.2
	c-0.1,0.1-0.3-0.3-0.3-0.3c0,0.3,0.5,0.8,0.6,1c0.3,0.4,0.4,1,0.8,1.3c0.2,0.2,0.9,0.9,1,0.9l0.9-0.4c0.6,0.2-1.5,3.2-1.7,3.6
	c-0.2,0.3,0.1,1.1,0.1,1.5c0,0.4-0.4,0.6-0.7,0.8c-0.4,0.3-0.3,0.8-0.6,0.9c-0.5,0.3-0.9,1.4-1.6,1.4c-0.2,0-1.2,0.4-1.3,0
	c-0.1-0.3-0.2-0.5-0.4-0.7c-0.1-0.2,0-0.5-0.2-0.7c-0.1-0.2-0.5-0.5-0.5-0.7c0-0.2,0.1-0.6,0.3-0.7c0.2-0.1,0-0.5,0-0.7
	c0-0.4-0.3-0.7-0.5-0.9c-0.4-0.3-0.2-0.5-0.1-1c0-0.2-0.1-0.5-0.4-0.4c-0.6,0.2-0.4-0.4-0.8-0.4c-0.3,0-0.5,0.2-0.8,0.3
	c-0.3,0.1-0.7-0.1-1.1-0.1c-1.4-0.2-1.9-1.8-1.5-3c0-0.2-0.1-0.5,0-0.7c0.2-0.4,0.5-0.8,0.8-1C8.8,9.5,9,9.6,9.2,9.5
	c0.3-0.2,0.3-0.6,0.6-0.8c0.4-0.3,1-0.3,1.5-0.4c0.3,0,1.4-0.3,1.5-0.1c0,0,0.2,0.6,0,0.6c0.4,0,1.1,0.8,1.5,0.6
	c0.2-0.1,0.1-0.7,0.6-0.4c0.3,0.2,1.5,0.3,1.7,0.1c0.2-0.1,0.2-0.9,0.1-1c0.1,0.1-0.6,0.1-0.7,0.1c-0.1,0-0.2,0.1-0.4,0
	c0.1,0.1-0.7-0.4-0.2-0.7c-0.2,0.1-0.3,0-0.5,0.1c-0.1,0.1,0.1,0.2-0.1,0.3C14.2,8,14,7.3,13.9,7.2c-0.1-0.1-1-0.7-0.8-0.3l0.8,0.8
	c0,0-0.2-0.3-0.2-0.1c0.1-0.1,0,0.6-0.1,0.4c-0.1-0.1,0.1-0.1,0-0.3c0-0.1-0.2-0.2-0.3-0.2c-0.1-0.2-0.5-0.5-0.6-0.6
	c-0.1,0-0.8,0.1-0.8,0.1c-0.1,0.1-0.1,0.2-0.2,0.3c-0.1,0.1-0.3,0.1-0.4,0.2l-0.2,0.4C11,8,10.3,8.2,10.3,8.2c0-0.1-0.5-0.2-0.5-0.3
	c0-0.2,0.2-0.7,0.2-0.9c0-0.2,1.1,0.3,1.2-0.2c0-0.2,0-0.5-0.3-0.5c0.1,0,0.7-0.2,0.8-0.4c0.1-0.2,0.5-0.4,0.7-0.4
	c0.3,0,0.2-0.4,0.4-0.6c0.1,0.1-0.1,0.4,0.1,0.5c0-0.1,0.4,0.1,0.5,0c0.1-0.1,0.7,0,0.6-0.3c-0.1-0.3,0.1-0.2,0.2-0.3
	c0,0,0.2-0.5,0.4-0.5c-0.1-0.1-0.4,0.1-0.5,0.1c-0.3,0-0.2-0.5-0.1-0.7c0.1-0.1-0.2-0.3-0.2,0c0,0.3-0.3,0.6-0.2,1.1
	c0.1,0.7-0.7-0.2-0.8-0.1c-0.3,0.2-0.5-0.2-0.4-0.4C12.4,4,12.8,4,12.9,3.8c0.1-0.2,0.2-0.4,0.4-0.5c0.5-0.5,0.7-0.1,1.2,0
	c0.5,0,0.2,0.1,0.1,0.3c-0.1,0.2,0.3,0.3,0.4,0.1c0.1-0.1,0.2-0.3,0.3-0.5c0.1-0.2,0.6-0.2,0.5-0.4C18.6,3.9,20.7,6.2,21.6,9.1z
	 M10.5,5.3L10.5,5.3l0.1-0.1c0,0,0.1-0.1,0.2-0.1c0,0,0.1,0.1,0.1,0.1c0,0.1-0.1,0-0.1,0.1c0,0.2-0.2,0.2-0.3,0.2
	c-0.1,0-0.2,0-0.1-0.1L10.5,5.3L10.5,5.3z M10.9,5.6c0,0,0.1,0,0.2-0.1c0-0.1,0.1-0.2,0-0.3c0,0,0.1-0.1,0.1-0.1L11,5
	c0,0,0.2-0.7,0.4-0.4l-0.1,0.1c0.1,0.1,0.2,0.5,0.2,0.7c0.1,0.1,0.3,0.1,0.1,0.2c0.1,0-0.6,0.3-0.7,0.2c-0.1-0.1,0.3-0.1,0.3-0.2
	C11.2,5.6,10.8,5.6,10.9,5.6z M12.3,2L12,2.3c-0.4,0.3-1.3,0.9-1.8,0.7C9.7,2.9,8.5,3.7,8.4,3.7c-0.1,0,0-0.6,0.4-0.7
	c-0.1,0,1-0.6,1.2-0.8C10.6,2.1,11.3,2,12,2C12,2,12.3,2,12.3,2z M7.2,3.2c0.1,0.1,0.3,0.1,0,0.3C7,3.6,6.8,4.3,6.7,4.3
	C6.2,4.5,6.1,3.9,5.6,4.7C5.5,4.8,5.2,4.9,4.9,5C5.6,4.3,6.4,3.7,7.2,3.2z M2,12c0-0.5,0.1-1.1,0.1-1.6l0.3,0.2
	c0.1,0.1,0.1,0.7,0.2,0.9c0.1,0.5,0.5,0.8,0.7,1.2c0.2,0.3,0.4,0.9,0.3,1.2c0.1-0.2,1.1,0.8,1.3,1C5.4,15.4,5.7,16,5,16.5
	c-0.2,0.2,0.3,1.1,0,1.4L4.7,18c-0.2,0.1-0.2,0.4-0.2,0.6C3,16.8,2,14.5,2,12z M16.3,6.2c0.1,0-0.1,0.2-0.1,0.2
	c0,0.3,0.2,0.4,0.6,0.5c0.4,0.2,0,0.5-0.2,0.4c-0.1,0-0.9-0.3-0.9,0c0,0.2-0.7,0-0.6-0.2c0.1-0.1,0.1-0.4,0.2-0.6
	c0.2-0.3,0.4-0.1,0.4,0C15.7,7,16.1,6.2,16.3,6.2z"/>
</svg>
