<?xml version="1.0" encoding="utf-8"?>
<!-- Generator: Adobe Illustrator 27.3.1, SVG Export Plug-In . SVG Version: 6.00 Build 0)  -->
<svg version="1.1" id="Layer_1" xmlns="http://www.w3.org/2000/svg" xmlns:xlink="http://www.w3.org/1999/xlink" x="0px" y="0px"
	 viewBox="0 0 24 24" style="enable-background:new 0 0 24 24;" xml:space="preserve">
<style type="text/css">
	.st0{fill:#FFFFFF;}
</style>
<path class="st0" d="M24,13H0v-3h24V13z M10,8h1V6H9v1h1V8z M12,5h1V4h-1V3H9v1h2v2h1V5z M14,6h1V1h-1v1h-1V1H9v1h3v1h2V6z M13,7h1
	V6h-1V7z M3,6h3V3H3V6z M18,6h3V3h-3V6z M16,8V1h7v7H16z M17,7h5V2h-5V7z M15,8V7h-1v1H15z M12,8h1V7h-1V8z M1,8V1h7v7H1z M2,7h5V2
	H2V7z M13,20v1h1v-1H13z M16,16h1v-1h-1V16z M18,19h2v1h-1v2h-1v1h-1v-1h-1v1h-1v-1h-1v-1h1v-2h-2v1h-3v1h1v1h-1v1H9v-5h1v-1h2v-1h1
	v-1h1v1h2v1h-1v1h1v1h1v-1h1V19z M17,20h-1v1h1V20z M19,15v1h1v-1H19z M21,15v1h1v-1H21z M18,17v-1h-1v1H18z M21,17v-1h-1v1h-1v1h1
	v1h1v-1h2v-2h-1v1H21z M12,23h1v-2h-1V23z M21,21v2h1v-1h1v-2h-1v1H21z M1,16h7v7H1V16z M2,22h5v-5H2V22z M20,23v-1h-1v1H20z M3,21
	h3v-3H3V21z M22,20v-1h-1v1H22z M9,15v2h1v-2H9z"/>
</svg>
