<?xml version="1.0" encoding="utf-8"?>
<!-- Generator: Adobe Illustrator 27.3.1, SVG Export Plug-In . SVG Version: 6.00 Build 0)  -->
<svg version="1.1" id="Layer_1" xmlns="http://www.w3.org/2000/svg" xmlns:xlink="http://www.w3.org/1999/xlink" x="0px" y="0px"
	 viewBox="0 0 576 512" style="enable-background:new 0 0 576 512;" xml:space="preserve">
<style type="text/css">
	.st0{fill:#FFFFFF;}
</style>
<path class="st0" d="M64,64C28.7,64,0,92.7,0,128v256c0,35.3,28.7,64,64,64h448c35.3,0,64-28.7,64-64V128c0-35.3-28.7-64-64-64H64z
	 M272,192h224c8.8,0,16,7.2,16,16s-7.2,16-16,16H272c-8.8,0-16-7.2-16-16S263.2,192,272,192z M256,304c0-8.8,7.2-16,16-16h224
	c8.8,0,16,7.2,16,16s-7.2,16-16,16H272C263.2,320,256,312.8,256,304z M164,152v13.9c7.5,1.2,14.6,2.9,21.1,4.7
	c10.7,2.8,17,13.8,14.2,24.5s-13.8,17-24.5,14.2c-11-2.9-21.6-5-31.2-5.2c-7.9-0.1-16,1.8-21.5,5c-4.8,2.8-6.2,5.6-6.2,9.3
	c0,1.8,0.1,3.5,5.3,6.7c6.3,3.8,15.5,6.7,28.3,10.5l0.7,0.2c11.2,3.4,25.6,7.7,37.1,15c12.9,8.1,24.3,21.3,24.6,41.6
	c0.3,20.9-10.5,36.1-24.8,45c-7.2,4.5-15.2,7.3-23.2,9V360c0,11-9,20-20,20s-20-9-20-20v-14.6c-10.3-2.2-20-5.5-28.2-8.4l0,0l0,0
	c-2.1-0.7-4.1-1.4-6.1-2.1c-10.5-3.5-16.1-14.8-12.6-25.3s14.8-16.1,25.3-12.6c2.5,0.8,4.9,1.7,7.2,2.4c13.6,4.6,24,8.1,35.1,8.5
	c8.6,0.3,16.5-1.6,21.4-4.7c4.1-2.5,6-5.5,5.9-10.5c0-2.9-0.8-5-5.9-8.2c-6.3-4-15.4-6.9-28-10.7l-1.7-0.5
	c-10.9-3.3-24.6-7.4-35.6-14C88,251.6,76.1,238.8,76,218.6c-0.1-21.1,11.8-35.7,25.8-43.9c6.9-4.1,14.5-6.8,22.2-8.5V152
	c0-11,9-20,20-20S164,141,164,152L164,152z"/>
</svg>
