<?xml version="1.0" encoding="utf-8"?>
<!-- Generator: Adobe Illustrator 27.3.1, SVG Export Plug-In . SVG Version: 6.00 Build 0)  -->
<svg version="1.1" id="Layer_1" xmlns="http://www.w3.org/2000/svg" x="0px"
     y="0px"
     viewBox="0 0 448 512" style="enable-background:new 0 0 448 512;" xml:space="preserve">
<style type="text/css">
	.st0{fill:#FFFFFF;}
</style>
    <path class="st0" d="M160,0c-17.7,0-32,14.3-32,32s14.3,32,32,32h16v34.4C76.3,113.8,0,200,0,304c0,114.9,93.1,208,208,208
	s208-93.1,208-208c0-41.8-12.3-80.7-33.5-113.2l24.1-24.1c12.5-12.5,12.5-32.8,0-45.3s-32.8-12.5-45.3,0L339.7,143
	c-28.1-23-62.2-38.8-99.7-44.6V64h16c17.7,0,32-14.3,32-32S273.7,0,256,0h-48H160z M232,192v128c0,13.3-10.7,24-24,24
	s-24-10.7-24-24V192c0-13.3,10.7-24,24-24S232,178.7,232,192z"/>
</svg>
